PathFileType  4	(X/Y/Z) C:\Users\antoi\Documents\MyRepositories\mobilecap\ResultsAnalysis
DataRate	CameraRate	NumFrames	NumMarkers	Units	OrigDataRate	OrigDataStartFrame	OrigNumFrames
100.0	100.0	5	51	mm	100.0	122	242
Frame#	Time	r_knee			r_shank_antsup			r_ankle			r_calc			r_5meta			r_toe			L_knee			L_shank_antsup			L_ankle			L_calc			L_5meta			L_toe			r_sh2			r_sh3			r_sh4			L_sh2			L_sh3			r_thigh1			r_thigh2			r_thigh3			r_thigh4			r_thigh5			L_thigh1			L_thigh2			L_thigh3			L_thigh4			r.ASIS			r.PSIS			L.ASIS			L.PSIS			C7			R_Shoulder			L_Shoulder			R_Sternum			L_Sternum			R_humerus			R_elbow_med			R_elbow_lat			R_forearm			R_wrist_radius			R_wrist_ulna			L_humerus			L_elbow_med			L_elbow_lat			L_forearm			L_wrist_radius			L_wrist_ulna			R_HJC			L_HJC			R_HJC_reg			L_HJC_reg			
		X1	Y1	Z1	X2	Y2	Z2	X3	Y3	Z3	X4	Y4	Z4	X5	Y5	Z5	X6	Y6	Z6	X7	Y7	Z7	X8	Y8	Z8	X9	Y9	Z9	X10	Y10	Z10	X11	Y11	Z11	X12	Y12	Z12	X13	Y13	Z13	X14	Y14	Z14	X15	Y15	Z15	X16	Y16	Z16	X17	Y17	Z17	X18	Y18	Z18	X19	Y19	Z19	X20	Y20	Z20	X21	Y21	Z21	X22	Y22	Z22	X23	Y23	Z23	X24	Y24	Z24	X25	Y25	Z25	X26	Y26	Z26	X27	Y27	Z27	X28	Y28	Z28	X29	Y29	Z29	X30	Y30	Z30	X31	Y31	Z31	X32	Y32	Z32	X33	Y33	Z33	X34	Y34	Z34	X35	Y35	Z35	X36	Y36	Z36	X37	Y37	Z37	X38	Y38	Z38	X39	Y39	Z39	X40	Y40	Z40	X41	Y41	Z41	X42	Y42	Z42	X43	Y43	Z43	X44	Y44	Z44	X45	Y45	Z45	X46	Y46	Z46	X47	Y47	Z47	X48	Y48	Z48	X49	Y49	Z49	X50	Y50	Z50	X51	Y51	Z51	

122	1.21000000	-475.39758	759.25018	-408.92948	-415.17980	677.12888	-407.56477	-416.44650	351.13637	-396.03714	-476.05551	346.14184	-451.71391	-324.17228	243.62096	-367.50293	-276.70432	272.73462	-408.90206	-433.87638	804.57187	-753.21722	-386.03039	719.22705	-743.11247	-456.45319	389.37763	-745.49323	-535.10225	379.10189	-691.71638	-379.84331	281.13324	-764.74804	-325.03334	298.87730	-713.98673	-394.29472	565.54864	-400.55274	-480.88715	666.27834	-369.68958	-464.42764	554.09099	-359.34327	-467.31447	734.83578	-780.88130	-474.75709	613.21930	-789.13084	-525.17353	1038.23841	-405.82560	-481.11593	937.11061	-414.58564	-516.83135	892.03819	-379.49650	-625.93712	988.15615	-386.81411	-571.25347	885.64263	-396.06274	-479.04149	1058.22813	-740.64670	-408.12722	938.40834	-727.01268	-560.73765	1006.75669	-792.94208	-495.13297	891.88564	-772.44286	-533.95288	1202.94626	-458.25492	-721.45381	1267.84015	-525.60543	-535.96301	1237.41240	-694.01698	-719.33596	1282.69353	-616.62740	-505.71890	1693.84900	-513.99479	-431.46334	1661.11233	-389.93236	-449.60953	1690.68599	-640.64537	-409.91042	1585.08192	-512.03067	-404.33248	1593.25507	-547.88656	-351.33583	1620.16982	-314.95258	-324.71819	1471.00594	-155.16711	-304.61610	1535.10899	-132.16541	-212.41493	1527.58192	-152.14877	-72.92402	1443.43364	-193.27821	-72.30134	1440.77806	-142.59843	-405.77916	1678.40699	-758.13406	-435.22157	1598.51899	-953.56722	-413.49825	1678.33042	-955.06715	-336.84010	1671.90231	-941.01499	-180.76016	1595.11352	-921.34924	-180.90814	1622.85153	-967.51238	-622.30685	1128.94016	-487.98496	-620.28520	1157.01999	-675.44498	-613.44781	1143.40362	-503.40133	-609.83668	1168.72556	-658.56919	
123	1.22000000	-462.22697	742.02366	-407.36155	-401.56322	660.56715	-405.00333	-399.02817	334.62044	-392.55939	-458.09202	329.02449	-448.72287	-306.00681	227.72337	-363.40678	-258.43005	257.32276	-404.30663	-425.39370	784.17208	-753.24055	-374.08965	700.98043	-743.69585	-428.36225	367.94729	-746.16763	-506.53687	356.56807	-693.53130	-348.76236	260.81648	-764.36804	-294.66195	280.49954	-713.74667	-379.52735	549.21687	-397.44613	-467.60203	648.70599	-367.87086	-450.12761	536.72617	-357.36140	-456.47823	712.84397	-781.02081	-457.76457	590.89454	-789.47044	-514.74402	1020.39513	-404.23833	-469.61593	919.51705	-412.68564	-505.70880	874.06744	-378.51964	-615.56676	969.55032	-387.88184	-559.86146	867.31582	-396.15546	-467.98940	1038.66956	-738.88075	-398.46336	917.95547	-725.68007	-549.42323	988.66210	-793.19747	-485.35970	872.77764	-772.63267	-523.41830	1184.50565	-458.02590	-710.48814	1249.58854	-526.92094	-524.76053	1218.97040	-693.46150	-708.28241	1264.72934	-617.50641	-493.56378	1674.30843	-512.10346	-419.41301	1643.12200	-389.78031	-437.88364	1673.71458	-637.30586	-396.84130	1565.75409	-509.66949	-391.67684	1573.86268	-546.65286	-339.14740	1604.21454	-314.45141	-312.49498	1459.72006	-150.23413	-292.62695	1524.30366	-129.48123	-200.40213	1516.47001	-148.72769	-60.28815	1431.93347	-187.40951	-60.31196	1430.44636	-136.06637	-396.65164	1666.18337	-755.48923	-432.84362	1595.57780	-953.83877	-412.04892	1675.65092	-951.66325	-334.98524	1669.30343	-940.29260	-178.07893	1593.59338	-927.48487	-179.59219	1623.34384	-972.33671	-612.00122	1110.67674	-488.28448	-608.94472	1138.71160	-675.73750	-602.53477	1124.69986	-503.49160	-598.76489	1150.58294	-658.34426	
124	1.23000000	-449.11587	723.96710	-405.65482	-387.85937	642.92608	-402.43170	-382.30948	317.00653	-389.00304	-440.49164	310.87315	-445.80806	-288.49663	210.95484	-359.00290	-240.70576	240.94578	-399.43778	-416.12077	763.25524	-753.04318	-362.16377	682.16607	-743.87198	-401.98761	346.86038	-747.02771	-479.53643	334.00262	-695.41439	-319.50659	241.08670	-764.74792	-266.19574	262.21496	-714.16723	-364.89203	531.82114	-394.29563	-454.09336	630.16095	-366.42599	-436.05013	518.34468	-355.23341	-445.09801	690.81301	-781.07867	-441.19330	568.94192	-790.13930	-504.53493	1001.47732	-403.20726	-458.14691	900.91211	-410.79279	-494.51871	855.38300	-377.22459	-605.11608	949.76603	-389.16940	-548.37381	847.86946	-396.35128	-456.86066	1018.03340	-737.12974	-388.57790	896.59036	-724.04645	-537.96311	969.27009	-793.13498	-475.19766	852.54981	-772.35675	-512.66995	1164.77049	-458.00077	-699.40461	1229.95683	-528.03514	-513.33747	1199.28919	-693.23751	-697.00106	1245.28807	-618.31990	-481.38644	1653.81338	-510.59217	-407.49602	1624.28668	-389.98754	-426.07215	1655.78898	-633.78496	-383.58055	1545.51596	-507.75052	-379.00308	1553.42060	-545.60660	-327.52793	1587.52372	-313.97690	-300.58750	1447.81122	-145.23819	-281.39984	1512.74345	-126.62950	-189.06347	1504.87784	-145.41693	-48.22859	1420.88425	-181.41928	-48.62052	1420.11646	-130.04347	-387.62992	1652.71357	-752.66004	-430.87326	1591.35179	-953.10373	-411.16695	1671.64549	-947.34389	-333.64783	1665.74006	-938.45976	-176.09707	1591.98407	-932.12731	-178.97263	1623.33227	-975.63777	-601.33505	1091.04061	-488.69829	-597.43968	1119.09499	-676.13310	-591.52526	1104.80201	-503.80539	-587.40861	1131.06273	-658.45718	
125	1.24000000	-436.23568	704.79815	-403.81555	-374.03268	624.24400	-400.01098	-366.21322	298.46644	-385.67005	-423.42884	291.70978	-443.20345	-271.77697	193.24794	-354.42099	-223.77043	223.40046	-394.37457	-405.85501	741.88820	-752.81543	-349.86348	662.66102	-743.86553	-377.38550	326.16312	-748.50872	-454.32543	310.84501	-696.91254	-292.33527	221.66587	-766.25895	-239.73243	243.53622	-715.31081	-350.22520	513.34117	-391.30265	-440.34567	611.04277	-365.05437	-421.81060	499.44594	-352.92873	-433.01545	668.63548	-781.06404	-424.89023	547.01455	-790.82639	-494.52770	981.35368	-402.63146	-446.82958	881.57357	-408.82230	-483.50492	835.83441	-375.80608	-594.67002	928.85366	-390.50410	-536.86019	827.47831	-396.46936	-445.56006	996.42539	-735.63881	-378.35176	874.54632	-722.19965	-526.11057	948.67456	-793.05617	-464.51295	831.36750	-771.76161	-501.77890	1143.80993	-458.18016	-688.29629	1209.08346	-529.05051	-501.60696	1178.41477	-693.46987	-685.40733	1224.46845	-619.12291	-469.28682	1632.41944	-509.35235	-395.70760	1604.75239	-390.38276	-414.28564	1636.88395	-630.24272	-370.16478	1524.64297	-506.01122	-367.15543	1531.55480	-545.33329	-316.25047	1569.91783	-313.77149	-289.46516	1434.99871	-140.54004	-271.04885	1500.31483	-123.75422	-178.50515	1492.68512	-142.33051	-36.93426	1409.50797	-175.91879	-37.49735	1409.51987	-124.59272	-379.47368	1637.28268	-749.59086	-429.55382	1585.59129	-951.29527	-410.74877	1665.99228	-942.34108	-332.75815	1661.10793	-935.88903	-174.84918	1589.91727	-934.95821	-179.20213	1622.53129	-977.31456	-590.38124	1070.12503	-489.28449	-585.75711	1098.24724	-676.69247	-580.60199	1083.79141	-504.49668	-575.64075	1110.20555	-659.13976	
126	1.25000000	-423.12759	684.74244	-402.09152	-359.91669	604.65702	-397.77218	-350.67342	279.24947	-382.52261	-407.04955	271.91482	-440.89948	-256.16111	174.16648	-349.91099	-207.77241	204.23898	-389.34308	-394.53527	719.83187	-752.38215	-336.92071	642.36873	-743.89550	-354.54257	305.47068	-750.30696	-430.91573	287.67151	-698.50150	-267.57403	202.12859	-768.87367	-215.38300	223.91365	-717.36359	-335.49126	493.88469	-388.63550	-426.44971	591.33300	-363.42252	-407.22980	479.82536	-350.78097	-420.13043	646.19538	-781.11619	-408.57062	524.84622	-791.38678	-484.50630	960.15046	-402.15582	-435.62754	861.43194	-406.84006	-472.57668	814.92717	-375.17375	-584.23814	906.91045	-391.70970	-525.35498	806.26452	-396.47394	-433.94845	974.05482	-734.54424	-367.47718	851.91447	-720.41603	-513.83452	926.97695	-793.18977	-453.12508	809.32053	-771.14177	-490.86712	1121.74928	-458.41862	-677.15041	1187.12998	-530.10902	-489.63301	1156.18983	-693.94438	-673.64173	1202.37355	-620.00234	-457.34642	1610.13098	-508.42972	-383.98233	1584.43751	-391.04422	-402.62651	1616.61327	-627.00202	-356.69933	1503.12039	-504.40993	-356.31121	1508.19217	-545.97911	-305.09470	1551.34105	-314.11521	-279.10264	1420.83602	-136.78802	-261.45884	1486.65789	-121.47656	-168.75546	1479.75926	-139.59869	-26.37795	1397.62094	-170.97772	-27.09867	1398.48161	-119.55869	-372.46891	1620.49836	-745.89666	-429.10896	1578.06012	-948.49322	-410.94807	1658.40362	-936.65439	-332.81992	1654.94344	-932.46836	-174.51346	1586.88478	-935.80052	-180.29069	1620.38103	-977.15269	-579.34941	1048.09323	-489.85800	-573.97883	1076.09318	-677.26421	-569.74602	1061.74578	-505.23888	-563.70486	1087.99266	-660.01542	
